<svg width="25" height="25" viewBox="0 0 25 25" fill="none" xmlns="http://www.w3.org/2000/svg">
<rect width="24" height="24" transform="translate(0.265625 0.5)" fill="#F8F8F8"/>
<path d="M23.9081 5.43659C23.0731 5.80659 22.1761 6.05659 21.2331 6.16959C22.2062 5.58738 22.9341 4.67105 23.2811 3.59159C22.367 4.13458 21.3665 4.51678 20.3231 4.72159C19.6215 3.97245 18.6922 3.47591 17.6795 3.30906C16.6667 3.14221 15.6272 3.31438 14.7224 3.79884C13.8175 4.2833 13.0979 5.05295 12.6753 5.98829C12.2527 6.92363 12.1507 7.97234 12.3851 8.97159C10.5328 8.87858 8.72078 8.39714 7.06657 7.55849C5.41237 6.71985 3.95299 5.54275 2.78315 4.10359C2.38315 4.79359 2.15315 5.59359 2.15315 6.44559C2.1527 7.21258 2.34158 7.96783 2.70303 8.64432C3.06447 9.32081 3.58731 9.89763 4.22515 10.3236C3.48542 10.3001 2.76202 10.1002 2.11515 9.74059V9.80059C2.11507 10.8763 2.48718 11.919 3.16833 12.7516C3.84948 13.5842 4.79772 14.1555 5.85215 14.3686C5.16593 14.5543 4.44649 14.5817 3.74815 14.4486C4.04565 15.3742 4.62514 16.1836 5.40552 16.7635C6.18589 17.3434 7.12807 17.6648 8.10015 17.6826C6.44998 18.978 4.41204 19.6807 2.31415 19.6776C1.94253 19.6777 1.57122 19.656 1.20215 19.6126C3.33162 20.9818 5.81049 21.7084 8.34215 21.7056C16.9121 21.7056 21.5971 14.6076 21.5971 8.45159C21.5971 8.25159 21.5921 8.04959 21.5831 7.84959C22.4944 7.19056 23.2811 6.37448 23.9061 5.43959L23.9081 5.43659Z" fill="black"/>
</svg>
