<svg width="25" height="25" viewBox="0 0 25 25" fill="none" xmlns="http://www.w3.org/2000/svg">
<g clip-path="url(#clip0_543_1244)">
<path fill-rule="evenodd" clip-rule="evenodd" d="M20.0403 4.92997C20.2874 4.82596 20.5579 4.79008 20.8236 4.82608C21.0893 4.86208 21.3405 4.96863 21.551 5.13465C21.7615 5.30067 21.9237 5.52008 22.0207 5.77005C22.1177 6.02002 22.1458 6.29141 22.1023 6.55597L19.8343 20.313C19.6143 21.64 18.1583 22.401 16.9413 21.74C15.9233 21.187 14.4113 20.335 13.0513 19.446C12.3713 19.001 10.2883 17.576 10.5443 16.562C10.7643 15.695 14.2643 12.437 16.2643 10.5C17.0493 9.73897 16.6913 9.29997 15.7643 9.99997C13.4613 11.738 9.76633 14.381 8.54433 15.125C7.46633 15.781 6.90433 15.893 6.23233 15.781C5.00633 15.577 3.86933 15.261 2.94133 14.876C1.68733 14.356 1.74833 12.632 2.94033 12.13L20.0403 4.92997Z" fill="#1D1D1D"/>
</g>
<defs>
<clipPath id="clip0_543_1244">
<rect width="24" height="24" fill="white" transform="translate(0.265625 0.5)"/>
</clipPath>
</defs>
</svg>
