<svg width="25" height="25" viewBox="0 0 25 25" fill="none" xmlns="http://www.w3.org/2000/svg">
<rect width="24" height="24" transform="translate(0.265625 0.5)" fill="#F8F8F8"/>
<path d="M12.2716 19.512H12.2516C12.1896 19.512 5.98663 19.5 4.42163 19.075C3.99877 18.9611 3.61325 18.7381 3.30367 18.4283C2.99409 18.1186 2.77131 17.7329 2.65763 17.31C2.37621 15.7224 2.24032 14.1123 2.25163 12.5C2.24436 10.885 2.38394 9.27271 2.66863 7.683C2.78552 7.25937 3.00933 6.8729 3.31858 6.56067C3.62783 6.24844 4.01214 6.02094 4.43463 5.9C5.95663 5.5 11.9886 5.5 12.2446 5.5H12.2656C12.3286 5.5 18.5476 5.512 20.0966 5.937C20.9556 6.17 21.6266 6.841 21.8586 7.7C22.1486 9.294 22.2856 10.911 22.2656 12.531C22.2726 14.144 22.1327 15.7543 21.8476 17.342C21.7325 17.7645 21.5088 18.1494 21.1988 18.4587C20.8888 18.768 20.5034 18.9908 20.0806 19.105C18.5606 19.508 12.5276 19.512 12.2716 19.512ZM10.2716 9.505L10.2666 15.505L15.4786 12.505L10.2716 9.505Z" fill="black"/>
</svg>
