<svg width="25" height="25" viewBox="0 0 25 25" fill="none" xmlns="http://www.w3.org/2000/svg">
<path d="M13.2942 2.50123C14.0239 2.49843 14.7537 2.50576 15.4832 2.52323L15.6772 2.53023C15.9012 2.53823 16.1222 2.54823 16.3892 2.56023C17.4532 2.61023 18.1792 2.77823 18.8162 3.02523C19.4762 3.27923 20.0322 3.62323 20.5882 4.17923C21.0966 4.67884 21.49 5.28318 21.7412 5.95023C21.9882 6.58723 22.1562 7.31423 22.2062 8.37823C22.2182 8.64423 22.2282 8.86623 22.2362 9.09023L22.2422 9.28423C22.26 10.0134 22.2676 10.7428 22.2652 11.4722L22.2662 12.2182V13.5282C22.2687 14.258 22.261 14.9877 22.2432 15.7172L22.2372 15.9112C22.2292 16.1352 22.2192 16.3562 22.2072 16.6232C22.1572 17.6872 21.9872 18.4132 21.7412 19.0502C21.4909 19.718 21.0973 20.3228 20.5882 20.8222C20.0882 21.3306 19.4835 21.724 18.8162 21.9752C18.1792 22.2222 17.4532 22.3902 16.3892 22.4402C16.1222 22.4522 15.9012 22.4622 15.6772 22.4702L15.4832 22.4762C14.7537 22.494 14.0239 22.5017 13.2942 22.4992L12.5482 22.5002H11.2392C10.5095 22.5027 9.77973 22.495 9.0502 22.4772L8.8562 22.4712C8.61881 22.4626 8.38147 22.4526 8.1442 22.4412C7.0802 22.3912 6.3542 22.2212 5.7162 21.9752C5.04889 21.7246 4.44444 21.3311 3.9452 20.8222C3.43625 20.3225 3.04243 19.7178 2.7912 19.0502C2.5442 18.4132 2.3762 17.6872 2.3262 16.6232C2.31506 16.3859 2.30506 16.1486 2.2962 15.9112L2.2912 15.7172C2.27277 14.9877 2.26443 14.258 2.2662 13.5282V11.4722C2.26341 10.7428 2.27075 10.0134 2.2882 9.28423L2.2952 9.09023C2.3032 8.86623 2.3132 8.64423 2.3252 8.37823C2.3752 7.31323 2.5432 6.58823 2.7902 5.95023C3.04157 5.28285 3.43617 4.67868 3.9462 4.18023C4.4451 3.67098 5.04916 3.2768 5.7162 3.02523C6.3542 2.77823 7.0792 2.61023 8.1442 2.56023L8.8562 2.53023L9.0502 2.52523C9.77939 2.5068 10.5088 2.49847 11.2382 2.50023L13.2942 2.50123ZM12.2662 7.50123C11.6037 7.49186 10.946 7.61425 10.3312 7.8613C9.7164 8.10834 9.15685 8.47511 8.68505 8.94029C8.21325 9.40546 7.8386 9.95977 7.58289 10.571C7.32718 11.1822 7.19549 11.8382 7.19549 12.5007C7.19549 13.1633 7.32718 13.8192 7.58289 14.4305C7.8386 15.0417 8.21325 15.596 8.68505 16.0612C9.15685 16.5264 9.7164 16.8931 10.3312 17.1402C10.946 17.3872 11.6037 17.5096 12.2662 17.5002C13.5923 17.5002 14.8641 16.9734 15.8017 16.0358C16.7394 15.0981 17.2662 13.8263 17.2662 12.5002C17.2662 11.1741 16.7394 9.90238 15.8017 8.9647C14.8641 8.02701 13.5923 7.50123 12.2662 7.50123ZM12.2662 9.50123C12.6647 9.49389 13.0607 9.56603 13.431 9.71344C13.8013 9.86085 14.1385 10.0806 14.423 10.3598C14.7074 10.639 14.9334 10.9721 15.0876 11.3396C15.2419 11.7071 15.3214 12.1016 15.3215 12.5002C15.3215 12.8988 15.2422 13.2934 15.088 13.6609C14.9339 14.0285 14.708 14.3617 14.4237 14.641C14.1393 14.9203 13.8022 15.1401 13.4319 15.2876C13.0617 15.4352 12.6657 15.5074 12.2672 15.5002C11.4716 15.5002 10.7085 15.1842 10.1459 14.6216C9.58327 14.0589 9.2672 13.2959 9.2672 12.5002C9.2672 11.7046 9.58327 10.9415 10.1459 10.3789C10.7085 9.8163 11.4716 9.50023 12.2672 9.50023L12.2662 9.50123ZM17.5162 6.00123C17.1936 6.01414 16.8885 6.15138 16.6648 6.3842C16.4411 6.61702 16.3162 6.92736 16.3162 7.25023C16.3162 7.5731 16.4411 7.88344 16.6648 8.11626C16.8885 8.34908 17.1936 8.48632 17.5162 8.49923C17.8477 8.49923 18.1657 8.36753 18.4001 8.13311C18.6345 7.89869 18.7662 7.58075 18.7662 7.24923C18.7662 6.91771 18.6345 6.59977 18.4001 6.36535C18.1657 6.13093 17.8477 5.99923 17.5162 5.99923V6.00123Z" fill="#1D1D1D"/>
</svg>
