<svg width="25" height="25" viewBox="0 0 25 25" fill="none" xmlns="http://www.w3.org/2000/svg">
<g clip-path="url(#clip0_543_1242)">
<path d="M20.5831 4.99197C19.0531 4.30197 17.4131 3.79197 15.6981 3.50197C15.6828 3.49904 15.667 3.50093 15.6529 3.50738C15.6387 3.51383 15.6269 3.52452 15.6191 3.53797C15.4091 3.90697 15.1751 4.38797 15.0111 4.76797C13.1922 4.49621 11.343 4.49621 9.52411 4.76797C9.34144 4.34683 9.13545 3.9362 8.90711 3.53797C8.89937 3.52436 8.88766 3.51342 8.87354 3.50663C8.85943 3.49984 8.84358 3.49752 8.82811 3.49997C7.11411 3.78997 5.47411 4.29997 3.94311 4.99097C3.92993 4.9965 3.91877 5.00592 3.91111 5.01797C0.799106 9.59297 -0.0538944 14.055 0.365106 18.461C0.366272 18.4718 0.369621 18.4822 0.374951 18.4917C0.38028 18.5011 0.387478 18.5094 0.396106 18.516C2.2125 19.8384 4.23844 20.8458 6.38911 21.496C6.4041 21.5006 6.42013 21.5006 6.43512 21.4959C6.4501 21.4913 6.46334 21.4823 6.47311 21.47C6.9359 20.851 7.346 20.1944 7.69911 19.507C7.70401 19.4976 7.70683 19.4872 7.70739 19.4766C7.70794 19.4661 7.70622 19.4555 7.70233 19.4456C7.69845 19.4358 7.69248 19.4268 7.68485 19.4195C7.67722 19.4121 7.6681 19.4065 7.65811 19.403C7.01211 19.1597 6.38619 18.8661 5.78611 18.525C5.77532 18.5188 5.76624 18.5101 5.75966 18.4995C5.75309 18.489 5.74923 18.477 5.74844 18.4646C5.74765 18.4522 5.74994 18.4398 5.75512 18.4286C5.7603 18.4173 5.7682 18.4075 5.77811 18.4C5.90411 18.307 6.03011 18.21 6.15011 18.113C6.16091 18.1043 6.17392 18.0987 6.18769 18.0969C6.20146 18.0952 6.21545 18.0973 6.22811 18.103C10.1551 19.867 14.4081 19.867 18.2891 18.103C18.3018 18.0969 18.3159 18.0946 18.3299 18.0961C18.3439 18.0977 18.3571 18.1032 18.3681 18.112C18.4881 18.21 18.6131 18.307 18.7401 18.4C18.7501 18.4073 18.7581 18.417 18.7635 18.4282C18.7688 18.4394 18.7713 18.4517 18.7707 18.4641C18.7701 18.4765 18.7665 18.4885 18.7601 18.4991C18.7537 18.5098 18.7448 18.5186 18.7341 18.525C18.1361 18.869 17.5141 19.16 16.8611 19.402C16.8511 19.4056 16.8419 19.4114 16.8343 19.4188C16.8267 19.4263 16.8207 19.4353 16.8168 19.4452C16.813 19.4551 16.8112 19.4658 16.8118 19.4764C16.8124 19.4871 16.8152 19.4975 16.8201 19.507C17.1801 20.194 17.5921 20.848 18.0451 21.469C18.0545 21.4817 18.0676 21.4912 18.0827 21.4963C18.0977 21.5013 18.1139 21.5015 18.1291 21.497C20.2835 20.8486 22.3127 19.8407 24.1311 18.516C24.14 18.5098 24.1474 18.5017 24.1529 18.4924C24.1585 18.4831 24.1619 18.4727 24.1631 18.462C24.6631 13.368 23.3251 8.94197 20.6141 5.01997C20.6075 5.00723 20.5965 4.99729 20.5831 4.99197ZM8.28611 15.778C7.10411 15.778 6.12911 14.709 6.12911 13.398C6.12911 12.086 7.08511 11.018 8.28611 11.018C9.49611 11.018 10.4621 12.095 10.4431 13.398C10.4431 14.71 9.48711 15.778 8.28611 15.778ZM16.2611 15.778C15.0781 15.778 14.1041 14.709 14.1041 13.398C14.1041 12.086 15.0591 11.018 16.2611 11.018C17.4711 11.018 18.4371 12.095 18.4181 13.398C18.4181 14.71 17.4721 15.778 16.2611 15.778Z" fill="#1D1D1D"/>
</g>
<defs>
<clipPath id="clip0_543_1242">
<rect width="24" height="24" fill="white" transform="translate(0.265625 0.5)"/>
</clipPath>
</defs>
</svg>
